<svg width="128" height="128" viewBox="0 0 128 128" fill="none" xmlns="http://www.w3.org/2000/svg">
<path fill-rule="evenodd" clip-rule="evenodd" d="M88.0379 42.812C89.6429 47.455 90.7989 52.195 91.1789 57.108C91.6509 63.203 91.4349 69.255 90.1499 75.25C90.1149 75.415 90.0409 75.57 89.9859 75.73C89.5829 75.731 89.1719 75.681 88.7779 75.742C85.4489 76.265 82.1229 76.807 78.7969 77.346C75.3589 77.903 71.9159 78.438 68.4839 79.033C67.2679 79.243 65.7629 78.992 65.2719 80.674C65.2579 80.72 65.1179 80.728 65.0369 80.754L65.2029 70.703L65.0339 46.451L66.6359 46.176C69.2559 45.747 71.8759 45.312 74.4979 44.895C77.6269 44.398 80.7589 43.915 83.8899 43.43C85.2709 43.215 86.6539 43.018 88.0379 42.812V42.812Z" fill="white"/>
<path fill-rule="evenodd" clip-rule="evenodd" d="M61.729 110.054C60.039 108.601 58.29 107.212 56.67 105.684C47.953 97.4619 41.577 87.7849 38.437 76.1179C37.572 72.9069 36.995 69.6439 36.81 66.3259C36.68 64.0039 36.492 61.6609 36.656 59.3509C37.093 53.2069 37.981 47.1219 39.783 41.2039L39.882 41.0659C40.057 41.2989 40.309 41.5049 40.398 41.7679C42.157 46.9479 43.903 52.1319 45.64 57.3189C51.098 73.6189 56.549 89.9229 62.016 106.219C62.123 106.537 62.4 106.798 62.599 107.085L61.729 110.054V110.054Z" fill="white"/>
<path fill-rule="evenodd" clip-rule="evenodd" d="M88.038 42.8118C86.654 43.0178 85.27 43.2148 83.889 43.4278C80.758 43.9128 77.626 44.3958 74.497 44.8928C71.875 45.3098 69.255 45.7448 66.635 46.1738L65.033 46.4488L65.021 45.4038C64.968 44.5448 64.877 43.6868 64.867 42.8278C64.798 37.3498 64.755 31.8718 64.687 26.3938C64.645 22.9648 64.582 19.5368 64.512 16.1088C64.469 13.9788 64.423 11.8478 64.327 9.72085C64.275 8.57785 64.091 7.44085 64.016 6.29785C63.974 5.64085 64.032 4.97885 64.045 4.31885C64.862 5.90185 65.661 7.49685 66.501 9.06785C67.828 11.5518 69.942 13.3818 71.845 15.3788C79.368 23.2708 84.709 32.4468 88.038 42.8118V42.8118Z" fill="white"/>
<path fill-rule="evenodd" clip-rule="evenodd" d="M65.0359 80.7532C65.1169 80.7272 65.2579 80.7192 65.2709 80.6732C65.7619 78.9912 67.2669 79.2422 68.4829 79.0322C71.9149 78.4382 75.3579 77.9022 78.7959 77.3452C82.1219 76.8062 85.4479 76.2642 88.7769 75.7412C89.1709 75.6792 89.5819 75.7302 89.9849 75.7292C89.3629 77.9492 88.8729 80.2172 88.0839 82.3762C87.1879 84.8252 86.1039 87.2152 84.9529 89.5582C83.2298 93.0529 81.0972 96.3303 78.5999 99.3212C76.6809 101.629 74.5419 103.762 72.3979 105.869C71.2129 107.034 69.8159 107.983 68.5159 109.03L68.1789 108.8L66.9649 107.762L65.7089 105.009C64.851 101.798 64.383 98.4946 64.3149 95.1712L64.3379 94.6102L64.5089 92.1842C64.5659 91.3562 64.6419 90.5292 64.6769 89.6992C64.8059 86.7172 64.9179 83.7352 65.0359 80.7532V80.7532Z" fill="white"/>
<path fill-rule="evenodd" clip-rule="evenodd" d="M65.0361 80.7531C64.9181 83.7351 64.8061 86.7171 64.6791 89.7001C64.6441 90.5301 64.5681 91.3571 64.5111 92.1851L63.7461 92.4741C62.0471 87.4721 60.3471 82.5231 58.6841 77.5611C55.9341 69.3521 53.2171 61.1301 50.4711 52.9191C48.2532 46.2916 46.0198 39.6692 43.7711 33.0521C43.6661 32.7421 43.3641 32.5001 43.1541 32.2261L48.0501 23.2241C48.2181 23.5161 48.4401 23.7891 48.5461 24.1031C50.8136 30.8052 53.0696 37.5112 55.3141 44.2211C58.2301 52.9511 61.1281 61.6881 64.0421 70.4191C64.1581 70.7681 64.3501 71.0901 64.5331 71.4811L65.2031 70.7011L65.0361 80.7531V80.7531Z" fill="white"/>
<path fill-rule="evenodd" clip-rule="evenodd" d="M43.1551 32.2271C43.3651 32.5011 43.6661 32.7431 43.7721 33.0531C46.0208 39.6702 48.2542 46.2925 50.4721 52.92C53.2181 61.131 55.9351 69.353 58.6851 77.562C60.3471 82.523 62.0471 87.473 63.7471 92.475L64.5121 92.186L64.3411 94.612L64.1861 95.171C63.9201 97.827 63.6961 100.489 63.3721 103.139C63.2091 104.467 62.8631 105.771 62.6001 107.086C62.4021 106.799 62.1241 106.538 62.0171 106.22C56.5501 89.923 51.0991 73.62 45.6411 57.32C43.9047 52.1327 42.1573 46.949 40.3991 41.7691C40.3101 41.5061 40.0591 41.3001 39.8831 41.0671L43.1551 32.2271V32.2271Z" fill="white"/>
<path fill-rule="evenodd" clip-rule="evenodd" d="M65.202 70.7018L64.5319 71.4818C64.3489 71.0908 64.157 70.7678 64.041 70.4198C61.128 61.6888 58.229 52.9518 55.313 44.2218C53.0685 37.5119 50.8125 30.8059 48.5449 24.1038C48.4399 23.7898 48.218 23.5158 48.049 23.2248L54.104 15.2598C54.295 15.5148 54.567 15.7418 54.666 16.0288C56.347 20.9498 58.0129 25.8768 59.6689 30.8068C61.2159 35.4108 62.74 40.0218 64.305 44.6198C64.41 44.9278 64.7749 45.1458 65.0189 45.4058L65.0309 46.4508C65.0889 54.5328 65.146 62.6178 65.202 70.7018V70.7018Z" fill="white"/>
<path fill-rule="evenodd" clip-rule="evenodd" d="M65.021 45.4042C64.777 45.1442 64.412 44.9262 64.307 44.6182C62.742 40.0202 61.218 35.4092 59.671 30.8052C58.015 25.8752 56.349 20.9492 54.668 16.0272C54.569 15.7402 54.297 15.5132 54.106 15.2582C56.075 13.3302 57.983 11.3332 60.031 9.49421C61.852 7.86021 63.316 6.10821 63.383 3.52621C63.386 3.41921 63.442 3.31221 63.528 3.01221L64.047 4.31821C64.034 4.97921 63.975 5.64021 64.018 6.29721C64.093 7.44021 64.277 8.57721 64.329 9.72021C64.425 11.8472 64.471 13.9782 64.514 16.1082C64.583 19.5362 64.646 22.9642 64.689 26.3932C64.756 31.8712 64.8 37.3492 64.869 42.8272C64.877 43.6882 64.967 44.5452 65.021 45.4042V45.4042Z" fill="white"/>
<path fill-rule="evenodd" clip-rule="evenodd" d="M62.598 107.085C62.861 105.77 63.207 104.465 63.37 103.138C63.695 100.489 63.918 97.8262 64.184 95.1702L64.25 95.1602L64.316 95.1712C64.3841 98.4946 64.8521 101.798 65.71 105.009C65.534 105.241 65.285 105.448 65.192 105.71C64.465 107.76 63.78 109.826 63.049 111.876C62.949 112.156 62.671 112.374 62.475 112.62L61.728 110.054L62.598 107.085V107.085Z" fill="white"/>
<path fill-rule="evenodd" clip-rule="evenodd" d="M62.476 112.621C62.672 112.375 62.9509 112.157 63.0499 111.877C63.7809 109.827 64.467 107.762 65.193 105.711C65.286 105.449 65.5339 105.242 65.7109 105.01L66.966 107.764C66.718 108.116 66.3759 108.433 66.2379 108.825L63.834 115.884C63.735 116.167 63.397 116.367 63.171 116.606L62.476 112.621V112.621Z" fill="white"/>
<path fill-rule="evenodd" clip-rule="evenodd" d="M63.171 116.605C63.398 116.367 63.735 116.166 63.834 115.883L66.238 108.824C66.375 108.433 66.718 108.115 66.966 107.763L68.181 108.8C67.594 109.38 67.268 110.05 67.464 110.897L67.095 112.105C66.927 112.312 66.684 112.492 66.601 112.729C65.762 115.132 64.961 117.548 64.116 119.951C64.009 120.256 63.712 120.495 63.502 120.763C63.393 119.376 63.282 117.992 63.171 116.605V116.605Z" fill="white"/>
<path fill-rule="evenodd" clip-rule="evenodd" d="M63.503 120.763C63.712 120.494 64.009 120.255 64.117 119.951C64.962 117.549 65.763 115.133 66.602 112.729C66.685 112.493 66.927 112.312 67.096 112.105L66.587 117.65C66.451 117.807 66.254 117.944 66.189 118.127C65.614 119.741 65.072 121.367 64.495 122.981C64.376 123.314 64.148 123.608 63.97 123.919C63.812 123.712 63.529 123.512 63.516 123.296C63.465 122.455 63.5 121.608 63.503 120.763V120.763Z" fill="white"/>
<path fill-rule="evenodd" clip-rule="evenodd" d="M63.969 123.919C64.147 123.607 64.375 123.313 64.494 122.981C65.072 121.368 65.613 119.742 66.188 118.127C66.253 117.944 66.451 117.808 66.586 117.65L66.598 121.29L65.38 124.414L63.969 123.919V123.919Z" fill="white"/>
<path fill-rule="evenodd" clip-rule="evenodd" d="M65.38 124.415L66.598 121.291L66.849 124.987L65.38 124.415V124.415Z" fill="white"/>
<path fill-rule="evenodd" clip-rule="evenodd" d="M67.464 110.898C67.268 110.051 67.593 109.38 68.181 108.801L68.518 109.031L67.464 110.898V110.898Z" fill="white"/>
<path fill-rule="evenodd" clip-rule="evenodd" d="M64.316 95.1718L64.25 95.1608L64.184 95.1708L64.339 94.6118L64.316 95.1718V95.1718Z" fill="white"/>
</svg>
