<svg width="128" height="128" viewBox="0 0 128 128" fill="none" xmlns="http://www.w3.org/2000/svg">
<path d="M6.609 90.958H6.109H2.001H2H1.5V90.458V74.261C1.5 73.408 1.67037 72.7044 2.07575 72.1515C2.48203 71.5973 3.07587 71.2604 3.78911 71.044C5.41324 70.538 6.84005 70.4851 8.00787 70.8819C9.19036 71.2837 10.0524 72.1287 10.5578 73.2993L6.609 90.958ZM6.609 90.958V90.458V76.566L12.011 88.5786C12.0114 88.5794 12.0117 88.5801 12.012 88.5809C12.4116 89.4922 12.9119 90.1697 13.6314 90.606C14.3447 91.0385 15.2101 91.195 16.261 91.195C17.3117 91.195 18.1692 91.0386 18.8742 90.6041C19.5843 90.1665 20.0733 89.488 20.471 88.5808C20.4713 88.58 20.4717 88.5793 20.472 88.5786L25.874 76.566V90.458V90.958H26.374H30.482H30.982V90.458V74.262C30.982 73.409 30.8116 72.7052 30.4063 72.1522C30 71.5978 29.4062 71.2609 28.6928 71.045C27.0692 70.5387 25.6517 70.4851 24.4881 70.8824C23.3101 71.2846 22.4511 72.1291 21.927 73.2938L21.9265 73.2949L16.1494 86.2155L10.5581 73.2998L6.609 90.958ZM38.506 76.752V77.252V86.19V86.2095L38.5045 86.229C38.4922 86.3856 38.5187 86.6345 38.7175 86.8487C38.9158 87.0623 39.3716 87.3342 40.4198 87.351C40.4199 87.351 40.4199 87.351 40.42 87.351L40.412 87.851C41.4689 87.8675 48.0914 87.8536 49.1917 87.8513L38.506 76.752ZM38.506 76.752H38.006H33.899H32.6919L33.4187 77.4788C33.4209 77.5325 33.423 77.5991 33.4249 77.6783C33.431 77.9269 33.4348 78.2804 33.4368 78.7065C33.441 79.5579 33.4381 80.6879 33.4325 81.8226C33.4251 83.3225 33.4127 84.8373 33.4056 85.7158C33.402 86.1614 33.3997 86.4432 33.4 86.4763L33.4001 86.4791C33.4203 87.7272 34.221 88.8163 35.4713 89.5746C36.7251 90.3351 38.4814 90.8018 40.5784 90.821H40.583H48.814M38.506 76.752L48.814 90.821M48.814 90.821V91.399V91.4001C48.8142 91.4706 48.8169 91.5366 48.8196 91.5995C48.8292 91.8269 48.837 92.0129 48.7125 92.2195C48.5788 92.4414 48.1903 92.7999 46.9537 92.9342L46.9408 92.9343L46.831 92.9346L46.4159 92.9352C46.0591 92.9355 45.551 92.9357 44.942 92.9358C43.724 92.9361 42.1028 92.9361 40.4818 92.936C37.4577 92.9357 34.4342 92.9351 34.0329 92.935L33.988 92.935H33.488V93.435V96.199V96.699H33.988H46.96H46.9673L46.9746 96.6987C48.0394 96.6677 49.7465 96.4527 51.2036 95.7623C52.6739 95.0657 53.9716 93.8348 53.959 91.7789L53.959 91.7785L53.959 91.7694L53.9591 91.7356L53.9593 91.6091L53.9599 91.1392L53.9623 89.4801C53.9642 88.111 53.9664 86.291 53.9681 84.4729C53.9698 82.6549 53.9709 80.8385 53.9704 79.4765C53.9701 78.7956 53.9695 78.2279 53.9683 77.8302C53.9677 77.6315 53.967 77.4745 53.9661 77.3669C53.9656 77.3133 53.9651 77.2704 53.9646 77.2402C53.9643 77.2257 53.964 77.2111 53.9635 77.1987C53.9633 77.1936 53.9628 77.1825 53.9618 77.17L53.9618 77.1697C53.9614 77.1653 53.96 77.1482 53.9565 77.1271C53.9541 77.1136 53.9451 77.0751 53.9375 77.0502C53.9122 76.9883 53.6989 76.7671 53.463 76.708H49.346H48.846V77.208V87.352L48.814 90.821Z" fill="white" stroke="white"/>
<path d="M56.1299 90.4581V90.9581H56.6299H68.4419C69.8887 90.9581 71.3057 90.6568 72.4453 90.1226C73.379 89.6936 74.1143 89.1707 74.6176 88.5295C75.1278 87.8795 75.3809 87.1311 75.3809 86.2971V83.2951C75.3809 81.7926 74.1372 80.5609 72.1366 79.8001C71.0431 79.3787 69.7161 79.1621 68.4409 79.1621H63.4629C62.6702 79.1621 62.1671 79.0401 61.8529 78.8475C61.5667 78.6721 61.3873 78.4075 61.3091 77.9684L61.3043 77.941L61.2964 77.9144C61.2802 77.8597 61.2779 77.8213 61.2779 77.6871V75.8171C61.2779 75.7137 61.2798 75.6725 61.2961 75.6177L61.3004 75.6034L61.3038 75.5888C61.3834 75.2481 61.4835 75.1248 61.6381 75.0363C61.8482 74.9159 62.2188 74.8279 62.9498 74.7616L63.3223 74.7371H75.0389H75.5389V74.2371V71.4991V70.9991H75.0389H63.5039C61.8263 70.9991 60.9008 71.1046 60.0422 71.3622L60.0422 71.3621L60.037 71.3638C58.7681 71.7596 57.7897 72.2907 57.1311 73.0511C56.4616 73.8239 56.1689 74.7792 56.1689 75.9231V78.3191C56.1689 79.4507 56.8155 80.4436 57.8698 81.1788C58.9215 81.9123 60.4122 82.4188 62.2267 82.6093L62.237 82.6104L62.2474 82.6111C62.287 82.6136 62.3268 82.6161 62.3669 82.6187C62.7206 82.6413 63.0915 82.6651 63.4639 82.6651H67.7309C67.9076 82.6651 68.0062 82.6674 68.0631 82.6794L68.0941 82.6859L68.1258 82.6885C69.3925 82.7905 69.7713 83.0126 70.0345 83.327L70.0551 83.3516L70.0787 83.3734C70.1284 83.4193 70.1678 83.4752 70.1944 83.5374C70.221 83.5996 70.2341 83.6667 70.233 83.7344L70.2329 83.7344V83.7431V86.1401C70.2329 86.2211 70.157 86.4608 69.8285 86.7236L69.8183 86.7318L69.8084 86.7406C69.5697 86.9531 69.1036 87.1457 68.3712 87.1951C68.3706 87.1951 68.37 87.1952 68.3694 87.1952L67.953 87.2201H56.6299H56.1299V87.7201V90.4581ZM100.012 85.1921H100.011V85.6921C100.011 87.244 100.598 88.4976 101.787 89.3869C102.948 90.2556 104.638 90.743 106.793 90.9047L106.798 90.905L106.806 90.9055C107.196 90.9312 107.604 90.9581 108.016 90.9581H118.722H119.222V90.4581V87.7201V87.2201H118.722H107.938C106.75 87.2201 106.043 87.0657 105.642 86.8128C105.298 86.5962 105.12 86.2694 105.12 85.6651V71.4971V70.9971H104.62H100.512H100.012V71.4971V85.1921ZM99.8679 92.9079L96.3723 89.7534C96.9538 89.4262 97.4224 89.0198 97.7652 88.4958C98.2344 87.7787 98.4299 86.8996 98.4299 85.8341V76.0691C98.4299 74.6966 97.9406 73.5569 96.954 72.7078C95.9864 71.8751 94.583 71.3581 92.8112 71.1138L92.8094 71.1135C92.3944 71.0578 92.0161 71.0301 91.5959 71.0301H83.7969C83.7969 71.0301 83.7969 71.0301 83.7969 71.0301C83.4028 71.03 83.0093 71.0581 82.6192 71.1139C80.848 71.3584 79.4453 71.8756 78.4781 72.7083C77.4919 73.5575 77.0029 74.6972 77.0029 76.0691V85.8341C77.0029 87.0691 77.3509 88.1062 78.0911 88.93C78.8212 89.7426 79.8908 90.3004 81.249 90.6708C82.0772 90.905 82.9331 91.0266 83.7937 91.0321H83.7969H88.1919H88.2077L88.2235 91.0311L91.3092 90.8354L94.4268 93.6502L94.5696 93.7791H94.7619H99.5329H100.833L99.8679 92.9079ZM82.4369 85.5971V85.0971H82.4359V76.3091C82.4359 75.8725 82.6353 75.5129 83.0366 75.2429C83.4537 74.9622 84.0984 74.7771 84.9439 74.7771H91.1599C92.653 74.7771 93.4016 75.3367 93.5621 76.049L93.5657 76.065L93.5704 76.0807C93.586 76.1338 93.5889 76.1972 93.5889 76.3091V85.6771C93.5889 85.8196 93.5857 85.8796 93.5704 85.9314L93.5654 85.9483L93.5616 85.9656C93.4917 86.2829 93.3264 86.5516 93.0595 86.765L90.355 84.322L90.2123 84.1931H90.0199H85.2489H83.949L84.9138 85.0642L87.377 87.2881H84.9449C84.1931 87.2881 83.6173 87.1406 83.2184 86.901C82.8316 86.6688 82.5939 86.3419 82.5053 85.9179L82.5032 85.9076L82.5006 85.8974C82.497 85.883 82.4935 85.8694 82.4902 85.8565C82.4498 85.6969 82.4369 85.6461 82.4369 85.5971Z" fill="white" stroke="white"/>
<path d="M116.037 67.3525L116.038 67.3523C117.525 66.7259 119.206 66.4624 121.256 66.4419C121.217 66.4135 121.177 66.3849 121.135 66.3561C120.916 66.2034 120.68 66.0574 120.461 65.9226C120.438 65.9085 120.414 65.8943 120.391 65.8801C120.205 65.766 120.022 65.654 119.893 65.5624M116.037 67.3525L120.182 65.1541M116.037 67.3525C115.956 67.3869 115.854 67.4162 115.711 67.4552L115.688 67.4615C115.562 67.4959 115.405 67.5388 115.257 67.5964C114.938 67.7207 114.517 67.9739 114.444 68.5389L114.414 68.7747L114.577 68.9472C114.632 69.0053 114.678 69.0916 114.744 69.2627C114.752 69.2846 114.761 69.3087 114.771 69.3347C114.826 69.4818 114.902 69.6872 115.016 69.8718L115.017 69.8721C115.424 70.5314 116.128 71.4449 116.792 71.946M116.037 67.3525L116.792 71.946M119.893 65.5624C119.893 65.5621 119.892 65.5618 119.892 65.5616L120.182 65.1541M119.893 65.5624C119.893 65.5625 119.894 65.5627 119.894 65.5628L120.182 65.1541M119.893 65.5624C119.681 65.4127 119.468 65.2614 119.256 65.11C118.435 64.5257 117.611 63.9387 116.764 63.4274M120.182 65.1541C119.974 65.0076 119.765 64.8584 119.554 64.7082C118.731 64.1225 117.887 63.5212 117.022 62.9991M116.764 63.4274C116.764 63.4275 116.764 63.4276 116.764 63.4276L117.022 62.9991M116.764 63.4274C116.764 63.4273 116.764 63.4272 116.764 63.4272L117.022 62.9991M116.764 63.4274C116.527 63.2849 116.182 63.1474 115.788 63.0062C115.686 62.9695 115.579 62.9322 115.472 62.8947C115.19 62.7962 114.903 62.6958 114.673 62.5987M117.022 62.9991L114.868 62.1381M114.673 62.5987L114.868 62.1381M114.673 62.5987C114.673 62.5987 114.673 62.5987 114.673 62.5987L114.868 62.1381M114.673 62.5987C114.485 62.5194 114.23 62.4363 113.923 62.3418C113.854 62.3205 113.782 62.2986 113.709 62.2763C113.467 62.2025 113.207 62.1232 112.955 62.039C112.627 61.9292 112.293 61.8041 112.002 61.6581C111.722 61.5172 111.429 61.3307 111.237 61.0737M114.868 62.1381C114.603 62.0262 114.24 61.9155 113.85 61.7966C112.979 61.5309 111.974 61.2246 111.637 60.7741M111.237 61.0737C111.237 61.0737 111.237 61.0737 111.237 61.0737L111.637 60.7741M111.237 61.0737C110.32 59.8496 109.677 58.3865 109.061 56.9864C109.025 56.9036 108.989 56.821 108.952 56.7387L108.952 56.7385C108.641 56.0307 108.289 55.3038 107.93 54.5626L107.884 54.4694C107.511 53.6994 107.133 52.915 106.797 52.1399L106.797 52.1392C106.656 51.8121 106.543 51.4963 106.438 51.2031C106.416 51.1402 106.394 51.0784 106.372 51.0177C106.246 50.6681 106.121 50.3449 105.952 50.0182M111.237 61.0737L111.637 60.7741M111.637 60.7741L105.952 50.0182M105.952 50.0182C105.952 50.0183 105.952 50.0184 105.952 50.0184L106.395 49.7871M105.952 50.0182L109.41 56.5371C109.095 55.8207 108.739 55.0863 108.381 54.3476C107.992 53.5448 107.601 52.7368 107.256 51.9411C107.122 51.6303 107.015 51.3324 106.911 51.0399C106.761 50.6189 106.614 50.2089 106.395 49.7871M105.952 50.0182C105.951 50.0181 105.951 50.018 105.951 50.0179L106.395 49.7871M105.952 50.0182C103.675 45.6557 100.352 42.003 96.2899 39.4378L96.2898 39.4378C94.9539 38.5937 93.4998 37.8289 91.8875 37.3385L96.5569 39.0151C100.696 41.6291 104.079 45.3491 106.395 49.7871M116.792 71.946C116.878 72.011 116.965 72.0771 117.053 72.144C117.616 72.5716 118.219 73.0302 118.845 73.4111M116.792 71.946L121.258 72.0501L121.549 71.6437C122.805 72.5439 123.994 73.6314 124.94 74.88M118.845 73.4111C118.845 73.411 118.845 73.4109 118.844 73.4108L119.105 72.9841L118.845 73.4111ZM118.845 73.4111C119.473 73.7944 120.133 74.0958 120.758 74.3811L120.817 74.4079C121.469 74.7056 122.081 74.9884 122.643 75.3442M122.643 75.3442C123.121 75.6484 123.589 76.0015 124.07 76.3651C124.276 76.5205 124.484 76.6779 124.697 76.8341L124.698 76.8352C124.788 76.9007 124.857 76.9691 124.951 77.0629C124.997 77.1088 125.049 77.1609 125.112 77.2218C125.284 77.3853 125.512 77.579 125.833 77.6918L126.499 77.9258V77.2201V77.1491V76.9762L126.392 76.8402C126.327 76.7574 126.277 76.6476 126.205 76.4659C126.2 76.4534 126.194 76.4403 126.189 76.4269C126.127 76.2694 126.041 76.053 125.908 75.8596L125.882 75.8219L125.849 75.7895L124.94 74.88M122.643 75.3442C122.643 75.3441 122.643 75.344 122.643 75.3439L122.911 74.9221M122.643 75.3442C122.643 75.3443 122.643 75.3444 122.643 75.3446L122.911 74.9221M124.94 74.88C124.947 74.8894 124.954 74.8988 124.961 74.9083L124.562 75.2091L124.915 74.8555L124.94 74.88ZM125.909 77.2201H125.499V77.1491H125.838C125.639 77.0428 125.485 76.8888 125.332 76.7362C125.277 76.682 125.223 76.628 125.167 76.5763C125.2 76.6455 125.232 76.7279 125.274 76.832L125.276 76.8368C125.344 77.0076 125.44 77.2468 125.606 77.458L125.909 77.2201ZM125.909 77.2201L125.938 77.1968C125.958 77.205 125.978 77.2128 125.999 77.2201M125.909 77.2201H125.999M125.999 77.2201L126.024 77.1491L126.033 77.122L126.165 76.7484C126.045 76.7062 125.94 76.6289 125.803 76.4984C125.776 76.473 125.745 76.4419 125.711 76.4074C125.67 76.3665 125.624 76.3208 125.575 76.2737C125.634 76.3839 125.681 76.5016 125.727 76.6193C125.802 76.8063 125.876 76.9932 125.999 77.1491V77.2201ZM113.143 59.5541C113.298 59.751 113.62 59.8589 113.925 59.9607C114.085 60.0145 114.241 60.0665 114.364 60.1291L114.589 59.6826C114.589 59.6828 114.59 59.683 114.59 59.6832C114.983 59.8811 115.397 60.0599 115.829 60.2467C115.964 60.3049 116.101 60.364 116.239 60.4246C116.81 60.6748 117.4 60.9479 117.935 61.2852L117.935 61.2854C119.769 62.4445 121.545 63.8286 123.162 65.2065L113.536 59.2448M113.143 59.5541L113.536 59.2451C113.536 59.245 113.536 59.2449 113.536 59.2448M113.143 59.5541L113.536 59.2448M113.143 59.5541C112.762 59.0702 112.501 58.4983 112.236 57.9209C112.112 57.65 111.988 57.3779 111.85 57.1131M113.536 59.2448C113.291 58.9332 113.094 58.5698 112.9 58.1624C112.835 58.027 112.768 57.8815 112.7 57.7314C112.571 57.4521 112.436 57.1572 112.294 56.8834M111.85 57.1131L112.295 56.8845C112.294 56.8841 112.294 56.8838 112.294 56.8834M111.85 57.1131C110.929 55.3222 110.067 53.5019 109.265 51.6551C109.085 51.2426 108.925 50.8321 108.768 50.4268C108.45 49.6086 108.14 48.812 107.686 48.0651C104.425 42.7041 100.915 39.4681 95.4779 36.2881C94.4624 35.6939 93.2652 35.4163 91.993 35.1214C91.8156 35.0802 91.6369 35.0388 91.4569 34.9961L89.0869 34.8521C88.8048 34.7342 88.5155 34.4825 88.233 34.2368C88.0339 34.0636 87.8382 33.8934 87.6509 33.7751C85.8489 32.6371 81.2289 30.1621 79.8949 33.4171C79.1882 35.1411 80.5554 36.8298 81.4571 37.9435C81.6297 38.1567 81.7852 38.3488 81.9059 38.5161C82.0201 38.6742 82.1412 38.8365 82.2648 39.002C82.7117 39.6006 83.1906 40.2419 83.4859 40.8851C83.6242 41.1862 83.6984 41.4877 83.774 41.7944C83.8339 42.0378 83.8947 42.2845 83.9889 42.5371M111.85 57.1131L112.294 56.8825C112.294 56.8828 112.294 56.8831 112.294 56.8834M112.294 56.8834L79.4323 33.2275C78.9243 34.4667 79.3255 35.6562 79.8703 36.597C80.1453 37.0718 80.4694 37.5061 80.7642 37.8791C80.8783 38.0235 80.9843 38.1544 81.0818 38.2747C81.2468 38.4784 81.3872 38.6517 81.5004 38.8086L81.5005 38.8088C81.6264 38.9832 81.7556 39.1564 81.8843 39.3289C82.3258 39.9208 82.7605 40.5036 83.0315 41.0937L83.0315 41.0938C83.1344 41.3179 83.1978 41.5486 83.2653 41.8201C83.2728 41.8504 83.2805 41.8815 83.2882 41.9131C83.3475 42.1543 83.4154 42.4302 83.5204 42.7118L83.9889 42.5371M83.9889 42.5371C84.128 42.9126 84.2625 43.2969 84.3976 43.6834C84.7686 44.7442 85.1452 45.821 85.6399 46.7731M83.9889 42.5371L83.5201 42.7108C83.6519 43.0666 83.7819 43.4384 83.9144 43.8174C84.2889 44.8883 84.6834 46.0167 85.196 47.0032M85.6399 46.7731L85.196 47.0032M85.6399 46.7731C85.9809 47.4311 86.3579 48.1241 86.7889 48.7121L86.7909 35.4251C85.8149 34.7791 84.8539 34.3241 83.7019 33.8451C83.2679 33.6651 82.1079 33.2371 81.6919 33.5581C81.4479 33.6391 81.3369 33.7421 81.2599 33.9891C81.0169 34.3551 81.2399 34.9261 81.4039 35.2821M85.6399 46.7731L85.1962 47.0036C85.1961 47.0035 85.1961 47.0033 85.196 47.0032M85.196 47.0032C85.5378 47.6628 85.9299 48.3859 86.3856 49.0077L86.3857 49.0078C86.4805 49.1371 86.5865 49.2404 86.6751 49.3219C86.7135 49.3572 86.7455 49.3859 86.7743 49.4116C86.8215 49.4538 86.8599 49.4881 86.9031 49.5311C86.9663 49.594 87.0103 49.6479 87.0394 49.7065C86.8428 50.0573 86.737 50.4498 86.6582 50.8028C86.6247 50.9529 86.5961 51.0941 86.5689 51.2288C86.5125 51.5083 86.4616 51.7602 86.3833 52.0069L86.3833 52.007C85.2251 55.6603 85.6462 60.2156 87.3696 62.9796C87.6233 63.3872 88.0809 64.083 88.7124 64.589C89.3588 65.1067 90.2499 65.4678 91.2858 65.045C92.225 64.6623 92.5588 63.8647 92.7208 63.0849C92.7898 62.7531 92.8334 62.3967 92.875 62.0562C92.8815 62.0026 92.888 61.9494 92.8946 61.8967C92.9207 61.6866 92.9479 61.4815 92.9813 61.2815L93.6667 62.6518L93.677 62.6723L93.6891 62.6919C94.6916 64.3061 96.4419 65.9585 97.9055 67.0641L97.9057 67.0642C98.1401 67.2411 98.3455 67.4528 98.5829 67.6975C98.6883 67.8061 98.8 67.9212 98.9233 68.0426C99.2526 68.3668 99.6453 68.7112 100.141 68.9267L100.162 68.9591H100.218C100.259 68.9754 100.301 68.9908 100.343 69.0053L101.005 69.2311V68.5321V68.4591V67.9591H100.673C100.578 67.8591 100.481 67.7809 100.396 67.7167C100.352 67.6835 100.314 67.6553 100.28 67.63C100.192 67.5652 100.13 67.5194 100.065 67.4561C99.5149 66.9168 98.9098 66.2534 98.467 65.6502L98.4664 65.6494C97.1769 63.8999 96.0342 61.9785 94.9884 59.9702C94.5798 59.1855 94.2161 58.3342 93.8587 57.4975C93.7857 57.3266 93.7129 57.1562 93.6401 56.9872L93.6398 56.9865C93.6153 56.9299 93.5925 56.8549 93.5655 56.7493C93.5588 56.723 93.5513 56.6928 93.5433 56.6604C93.5235 56.5802 93.5003 56.4861 93.4761 56.4027C93.4113 56.1797 93.2835 55.8074 92.9277 55.6034L92.5166 55.3676L92.2592 55.7654C92.0998 56.0117 91.9177 56.2338 91.7141 56.4821C91.6435 56.5684 91.5702 56.6578 91.4944 56.7524C91.2129 57.1039 90.9169 57.5057 90.7094 57.9963L90.7093 57.9967C90.3982 58.7337 90.2286 59.5367 90.1093 60.3533C90.0382 60.8398 89.9819 61.3579 89.9256 61.8752C89.9092 62.0258 89.8929 62.1764 89.8761 62.3261C89.7307 62.2185 89.6041 62.0732 89.4859 61.8919C89.2942 61.5977 89.1516 61.254 88.9934 60.8727C88.9635 60.8008 88.9331 60.7275 88.9017 60.653M88.9017 60.653C88.9017 60.653 88.9017 60.6531 88.9017 60.6531L88.4409 60.8471L88.9017 60.653ZM88.9017 60.653C88.0095 58.5334 87.8374 55.0599 88.6298 52.5994L88.6299 52.5991C88.6691 52.477 88.738 52.2977 88.8268 52.0664C88.8468 52.0145 88.8677 51.9599 88.8896 51.9027C89.0047 51.6018 89.1375 51.2475 89.2517 50.8918C89.3648 50.5394 89.4661 50.1661 89.5108 49.8291C89.5485 49.5447 89.5637 49.1718 89.4025 48.8667M89.4025 48.8667C89.2662 48.4692 89.0071 48.1735 88.7839 47.947C88.7 47.8618 88.6246 47.789 88.5562 47.7228C88.4108 47.5822 88.297 47.4722 88.1997 47.3396C87.7691 46.7393 87.4017 46.096 87.1033 45.4202L87.1032 45.4199C86.743 44.6054 86.4744 43.7385 86.1943 42.8344C86.1859 42.8073 86.1775 42.7802 86.1691 42.7531C85.8831 41.83 85.5823 40.8708 85.1623 39.9564L85.162 39.9558C84.8045 39.1801 84.2377 38.4009 83.7546 37.7367C83.6786 37.6323 83.6047 37.5307 83.534 37.4324C83.5339 37.4323 83.5339 37.4322 83.5338 37.4321L83.1279 37.7241C82.9352 37.4552 82.7349 37.2095 82.5364 36.966C82.1223 36.4578 81.7163 35.9595 81.4039 35.2821M89.4025 48.8667C89.409 48.8856 89.4152 48.9048 89.4212 48.9242L88.9429 49.0701L89.3645 48.8013C89.3782 48.8227 89.3908 48.8445 89.4025 48.8667ZM81.4039 35.2821L81.858 35.0729C81.858 35.0728 81.858 35.0728 81.858 35.0727L81.4039 35.2821ZM88.89 37.0021H88.2989H88.2272L88.1584 36.982C87.7664 36.8672 87.438 36.614 87.1847 36.3996C87.0922 36.3213 87.0107 36.2494 86.9358 36.1834C86.7788 36.0451 86.6514 35.9327 86.5146 35.8418C85.577 35.2212 84.6492 34.7805 83.5104 34.3069L88.89 37.0021ZM88.89 37.0021C89.3899 37.1099 89.9094 37.1335 90.3753 37.1546C90.4142 37.1564 90.4527 37.1581 90.4907 37.1599C91.0248 37.1849 91.4837 37.2157 91.8874 37.3385L88.89 37.0021ZM92.664 60.647L93.0902 60.7565C93.0902 60.7566 93.0901 60.7567 93.0901 60.7569L92.664 60.647ZM92.664 60.647L92.6221 60.5634L92.664 60.647ZM122.911 74.9221C123.407 75.2376 123.9 75.6102 124.389 75.9793C124.591 76.1319 124.793 76.2839 124.993 76.4311L122.911 74.9221ZM117.882 69.6439C118.064 69.6157 118.251 69.5786 118.439 69.5366C118.288 69.372 118.191 69.2224 118.142 69.0891C118.121 69.0934 118.1 69.0976 118.079 69.1018C117.971 69.1229 117.864 69.1415 117.759 69.1569C117.704 69.1649 117.65 69.172 117.596 69.1781L117.668 69.2491C117.716 69.3834 117.789 69.515 117.882 69.6439ZM88.8259 39.2512L88.4439 39.344V39.7371V39.8081V40.3081H88.7256C88.8521 40.5031 88.993 40.6692 89.1226 40.8146C89.1687 40.8663 89.2123 40.9144 89.2538 40.9602C89.3828 41.1025 89.4915 41.2224 89.5884 41.3557L90.2886 42.8243L90.5931 43.463L91.0935 42.9626L91.1361 42.92C91.7369 42.4766 91.9591 41.7952 91.9569 40.9568L91.9564 40.7576L91.819 40.6133C91.7937 40.5867 91.7709 40.5504 91.7262 40.448C91.7214 40.4371 91.7162 40.4249 91.7106 40.4117C91.6705 40.318 91.6074 40.1704 91.5104 40.0295C91.353 39.7988 91.1358 39.638 90.976 39.5255C90.9344 39.4962 90.8965 39.4699 90.8617 39.4457C90.7406 39.3619 90.6568 39.3037 90.5849 39.234L90.2369 39.5931L90.2451 39.0932C89.7672 39.0853 89.2903 39.1384 88.8259 39.2512Z" fill="white" stroke="white"/>
</svg>
